<?xml version="1.0" encoding="UTF-8" standalone="no"?>
<svg width="133px" height="133px" viewBox="0 0 133 133" version="1.1" xmlns="http://www.w3.org/2000/svg" xmlns:xlink="http://www.w3.org/1999/xlink" xmlns:sketch="http://www.bohemiancoding.com/sketch/ns">
    <!-- Generator: Sketch 3.4.3 (16044) - http://www.bohemiancoding.com/sketch -->
    <title>Contact</title>
    <desc>Created with Sketch.</desc>
    <defs></defs>
    <g id="Page-1" stroke="none" stroke-width="1" fill="none" fill-rule="evenodd" sketch:type="MSPage">
        <g id="Contact-Us" sketch:type="MSArtboardGroup" transform="translate(-1054.000000, -92.000000)">
            <g id="Contact" sketch:type="MSLayerGroup" transform="translate(1054.000000, 92.000000)">
                <circle id="Oval-7-Copy-8" fill-opacity="0.400000006" fill="#101010" sketch:type="MSShapeGroup" cx="66.5" cy="66.5" r="66.5"></circle>
                <g id="ic_phone_black_24px-copy-2" transform="translate(32.000000, 31.000000)" sketch:type="MSShapeGroup">
                    <g id="Group">
                        <path d="M0,0 L71,0 L71,71 L0,71 L0,0 Z" id="Shape"></path>
                        <path d="M39.0795833,51.4158333 L45.5879167,44.9075 C46.3866667,44.10875 62.125,47.215 62.125,48.8420833 L62.125,59.1666667 C62.125,60.79375 60.79375,62.125 59.1666667,62.125 C31.3879167,62.125 8.875,39.6120833 8.875,11.8333333 C8.875,10.20625 10.20625,8.875 11.8333333,8.875 L22.1875,8.875 C23.8145833,8.875 26.9208333,24.58375 26.0925,25.4120833 L19.5841667,31.9204167 C23.8441667,40.2925 30.7075,47.12625 39.0795833,51.4158333 Z" id="Shape" fill="#FFFFFF"></path>
                    </g>
                </g>
            </g>
        </g>
    </g>
</svg>