<?xml version="1.0" encoding="UTF-8" standalone="no"?>
<svg width="272px" height="51px" viewBox="0 0 272 51" version="1.1" xmlns="http://www.w3.org/2000/svg" xmlns:xlink="http://www.w3.org/1999/xlink" xmlns:sketch="http://www.bohemiancoding.com/sketch/ns">
    <!-- Generator: Sketch 3.4.3 (16044) - http://www.bohemiancoding.com/sketch -->
    <title>Nofraud_Logo_Color</title>
    <desc>Created with Sketch.</desc>
    <defs></defs>
    <g id="Page-1" stroke="none" stroke-width="1" fill="none" fill-rule="evenodd" sketch:type="MSPage">
        <g id="Logo-&amp;-Favicon" sketch:type="MSArtboardGroup" transform="translate(-894.000000, -227.000000)">
            <g id="Nofraud_Logo_Color" sketch:type="MSLayerGroup" transform="translate(894.000000, 227.000000)">
                <g id="Layer_1" sketch:type="MSShapeGroup">
                    <g id="Group">
                        <path d="M90.3,25.35 C90.3,39.3 79.05,50.7 64.95,50.7 C58.35,50.7 52.5,48.3 48,44.25 L82.2,6.9 C87.15,11.55 90.3,18 90.3,25.35 L90.3,25.35 Z" id="XMLID_4_" fill="#E31800"></path>
                        <path d="M82.2,6.9 L48,44.1 C42.9,39.45 39.6,32.85 39.6,25.35 C39.6,11.4 51,0 64.95,0 C71.7,0 77.7,2.55 82.2,6.9 L82.2,6.9 Z" id="XMLID_3_" fill="#E75F51"></path>
                        <path d="M0.75,6.9 L10.35,6.9 L25.65,26.7 L25.65,6.9 L36,6.9 L36,44.25 L27,44.25 L10.95,23.85 L10.95,44.25 L0.75,44.25 L0.75,6.9 L0.75,6.9 Z" id="XMLID_5_" fill="#000000"></path>
                        <path d="M93.6,6.9 L123.45,6.9 L123.45,15.9 L103.95,15.9 L103.95,22.2 L121.5,22.2 L121.5,30.75 L103.95,30.75 L103.95,44.1 L93.6,44.1 L93.6,6.9 L93.6,6.9 Z" id="XMLID_10_" fill="#000000"></path>
                        <path d="M125.4,6.9 L143.1,6.9 C148.8,6.9 152.7,8.4 155.25,10.95 C157.5,13.05 158.55,15.9 158.55,19.65 L158.55,19.8 C158.55,25.5 155.55,29.25 150.9,31.2 L159.75,44.25 L147.75,44.25 L140.25,33 L140.1,33 L135.6,33 L135.6,44.25 L125.25,44.25 L125.25,6.9 L125.4,6.9 Z M142.65,24.9 C146.1,24.9 148.2,23.25 148.2,20.4 L148.2,20.25 C148.2,17.25 146.1,15.75 142.65,15.75 L135.9,15.75 L135.9,24.75 L142.65,24.75 L142.65,24.9 Z" id="XMLID_12_" fill="#000000"></path>
                        <path d="M173.4,6.6 L183.3,6.6 L199.2,44.25 L188.1,44.25 L185.4,37.65 L171,37.65 L168.3,44.25 L157.5,44.25 L173.4,6.6 L173.4,6.6 Z M182.4,29.55 L178.2,18.9 L174,29.55 L182.4,29.55 L182.4,29.55 Z" id="XMLID_15_" fill="#000000"></path>
                        <path d="M198.3,27.9 L198.3,6.9 L208.8,6.9 L208.8,27.6 C208.8,33 211.5,35.55 215.7,35.55 C219.9,35.55 222.6,33.15 222.6,27.9 L222.6,6.9 L233.1,6.9 L233.1,27.6 C233.1,39.6 226.2,45 215.55,45 C204.9,45 198.3,39.6 198.3,27.9 L198.3,27.9 Z" id="XMLID_18_" fill="#000000"></path>
                        <path d="M236.55,6.9 L250.95,6.9 C264.3,6.9 271.95,14.55 271.95,25.35 L271.95,25.5 C271.95,36.3 264.15,44.25 250.65,44.25 L236.4,44.25 L236.4,6.9 L236.55,6.9 Z M251.1,35.1 C257.25,35.1 261.45,31.65 261.45,25.65 L261.45,25.5 C261.45,19.5 257.4,16.05 251.1,16.05 L246.9,16.05 L246.9,35.1 L251.1,35.1 L251.1,35.1 Z" id="XMLID_20_" fill="#000000"></path>
                    </g>
                </g>
            </g>
        </g>
    </g>
</svg>