<?xml version="1.0" encoding="UTF-8" standalone="no"?>
<svg width="272px" height="52px" viewBox="0 0 272 52" version="1.1" xmlns="http://www.w3.org/2000/svg" xmlns:xlink="http://www.w3.org/1999/xlink" xmlns:sketch="http://www.bohemiancoding.com/sketch/ns">
    <!-- Generator: Sketch 3.4.3 (16044) - http://www.bohemiancoding.com/sketch -->
    <title>Page 1</title>
    <desc>Created with Sketch.</desc>
    <defs>
        <path id="path-1" d="M0,0.435882353 L271.746033,0.435882353 L271.746033,52 L0,52"></path>
        <path id="path-3" d="M0,0.435882353 L271.746033,0.435882353 L271.746033,52 L0,52 L0,0.435882353 Z"></path>
    </defs>
    <g id="Page-1" stroke="none" stroke-width="1" fill="none" fill-rule="evenodd" sketch:type="MSPage">
        <g id="Logo-&amp;-Favicon" sketch:type="MSArtboardGroup" transform="translate(-208.000000, -227.000000)">
            <g id="Page-1" sketch:type="MSLayerGroup" transform="translate(208.000000, 227.000000)">
                <g id="Group-3">
                    <mask id="mask-2" sketch:name="Clip 2" fill="white">
                        <use xlink:href="#path-1"></use>
                    </mask>
                    <g id="Clip-2"></g>
                    <path d="M89.6725392,26.2236 C89.6725392,40.4639529 78.3266829,52.0003059 64.3344619,52.0003059 C57.7959425,52.0003059 51.840495,49.4783059 47.3532464,45.3550118 L81.697379,7.44854118 C86.6099094,12.1453647 89.6725392,18.8212471 89.6725392,26.2236" id="Fill-1" fill="#E31800" sketch:type="MSShapeGroup" mask="url(#mask-2)"></path>
                </g>
                <path d="M82.2604857,7.58950333 L47.4808713,45.3488372 C42.291474,40.6384418 39.0286976,33.8470632 39.0286976,26.2909309 C39.0286976,12.1064252 50.516897,0.604651163 64.6774077,0.604651163 C71.4814532,0.604651163 77.6737281,3.25691455 82.2604857,7.58950333" id="Fill-4" fill="#E75F51" sketch:type="MSShapeGroup"></path>
                <path d="M0,7.25581395 L9.70126395,7.25581395 L25.1367378,27.3901071 L25.1367378,7.25581395 L35.4260486,7.25581395 L35.4260486,45.3488372 L26.315847,45.3488372 L10.2908185,24.4521018 L10.2908185,45.3488372 L0,45.3488372 L0,7.25581395 Z" id="Fill-6" fill="#FFFFFF" sketch:type="MSShapeGroup"></path>
                <path d="M93.0684327,7.25581395 L123.090508,7.25581395 L123.090508,16.5076985 L103.469449,16.5076985 L103.469449,22.9823336 L121.214222,22.9823336 L121.214222,31.7442954 L103.469449,31.7442954 L103.469449,45.3488372 L93.0684327,45.3488372 L93.0684327,7.25581395 Z" id="Fill-8" fill="#FFFFFF" sketch:type="MSShapeGroup"></path>
                <path d="M142.004415,25.5406488 C145.511852,25.5406488 147.531693,23.7998921 147.531693,21.0241737 L147.531693,20.9154721 C147.531693,17.9223504 145.405702,16.3989969 141.950592,16.3989969 L135.201842,16.3989969 L135.201842,25.5406488 L142.004415,25.5406488 Z M124.891832,7.25581395 L142.482838,7.25581395 C148.170088,7.25581395 152.10063,8.78069845 154.598893,11.391068 C156.778707,13.5681621 157.89403,16.5076985 157.89403,20.2632624 L157.89403,20.371964 C157.89403,26.1928585 154.865016,30.057124 150.242256,32.0704002 L159.116998,45.3488372 L147.211747,45.3488372 L139.719947,33.8126879 L139.612301,33.8126879 L135.201842,33.8126879 L135.201842,45.3488372 L124.891832,45.3488372 L124.891832,7.25581395 Z" id="Fill-10" fill="#FFFFFF" sketch:type="MSShapeGroup"></path>
                <path d="M181.478832,30.4363284 L177.350821,19.6829046 L173.170707,30.4363284 L181.478832,30.4363284 Z M172.482954,7.25581395 L182.377973,7.25581395 L198.145695,45.3488372 L187.140147,45.3488372 L184.441235,38.5948844 L170.154714,38.5948844 L167.509393,45.3488372 L156.715232,45.3488372 L172.482954,7.25581395 Z" id="Fill-12" fill="#FFFFFF" sketch:type="MSShapeGroup"></path>
                <path d="M197.545254,28.585878 L197.545254,7.25581395 L208.248736,7.25581395 L208.248736,28.3705771 C208.248736,33.8508262 211.020146,36.457342 215.257514,36.457342 C219.496411,36.457342 222.266292,33.9607671 222.266292,28.6408485 L222.266292,7.25581395 L232.971302,7.25581395 L232.971302,28.3156066 C232.971302,40.5816532 225.962524,45.9534884 215.148981,45.9534884 C204.336966,45.9534884 197.545254,40.4732393 197.545254,28.585878" id="Fill-14" fill="#FFFFFF" sketch:type="MSShapeGroup"></path>
                <g id="Group-18">
                    <mask id="mask-4" sketch:name="Clip 17" fill="white">
                        <use xlink:href="#path-3"></use>
                    </mask>
                    <g id="Clip-17"></g>
                    <path d="M250.806842,36.2079059 C257.004234,36.2079059 261.115792,32.7284941 261.115792,26.5848471 L261.115792,26.4762588 C261.115792,20.3892 257.004234,16.8547294 250.806842,16.8547294 L246.587085,16.8547294 L246.587085,36.2079059 L250.806842,36.2079059 Z M236.224035,7.50543529 L250.646046,7.50543529 C264.001096,7.50543529 271.746334,15.3329647 271.746334,26.3141412 L271.746334,26.4227294 C271.746334,37.4039059 263.8944,45.5587294 250.434157,45.5587294 L236.224035,45.5587294 L236.224035,7.50543529 Z" id="Fill-16" fill="#FFFFFF" sketch:type="MSShapeGroup" mask="url(#mask-4)"></path>
                </g>
            </g>
        </g>
    </g>
</svg>