<?xml version="1.0" encoding="UTF-8" standalone="no"?>
<svg width="16px" height="16px" viewBox="0 0 16 16" version="1.1" xmlns="http://www.w3.org/2000/svg" xmlns:xlink="http://www.w3.org/1999/xlink">
    <!-- Generator: Sketch 3.6.1 (26313) - http://www.bohemiancoding.com/sketch -->
    <title>Favicon</title>
    <desc>Created with Sketch.</desc>
    <defs>
        <ellipse id="path-1" cx="7.9980162" cy="7.97261212" rx="7.9980162" ry="7.97261212"></ellipse>
    </defs>
    <g id="Page-1" stroke="none" stroke-width="1" fill="none" fill-rule="evenodd">
        <g id="1.Logo&amp;Favicon" transform="translate(-748.000000, -533.000000)">
            <g id="Favicon" transform="translate(748.000000, 533.000000)">
                <g id="Group" transform="translate(0.000000, 0.054776)">
                    <g id="Path-144-+-Path-143-+-Path-142-+-Path-141-+-Path-140-+-Path-139-+-Path-145-Mask">
                        <mask id="mask-2" fill="white">
                            <use xlink:href="#path-1"></use>
                        </mask>
                        <use id="Mask" fill="#D8D8D8" xlink:href="#path-1"></use>
                        <path d="M8.30962722,7.69770869 L12.4847009,5.79826336 C12.4847009,5.79826336 15.450089,6.47110954 16.4353843,7.69770866 C17.4206797,8.92430778 14.5088627,16.2085375 11.7466389,17.0377564 C8.98441519,17.8669752 8.30962722,7.69770869 8.30962722,7.69770869 Z" id="Path-144" fill="#58A4FE" mask="url(#mask-2)"></path>
                        <path d="M8.1429627,7.66199087 L12.3889922,7.73856515 L12.4358716,11.7511817 C12.4358716,11.7511817 12.6382474,14.7378581 9.28755516,16.686875 C5.93686289,18.6358919 1.66192544,13.9334248 1.66192544,13.9334248 L8.1429627,7.66199087 Z" id="Path-143" fill="#286AB4" mask="url(#mask-2)"></path>
                        <path d="M8.16132156,7.56064746 L8.72674456,11.5485556 C8.72674456,11.5485556 6.21175423,15.0663379 1.65521729,14.452938 C-2.90131965,13.8395381 -2.00618467,7.04074836 -2.00618467,7.04074836 L8.16132156,7.56064746 Z" id="Path-142" fill="#58A4FE" mask="url(#mask-2)"></path>
                        <path d="M8.05264479,7.79918694 L3.97723272,11.9398407 C3.97723272,11.9398407 0.630179233,12.0409996 -0.291842299,5.5805478 C-1.21386383,-0.879903972 3.3234687,-0.828316888 3.3234687,-0.828316888 L8.37265359,-0.803531001 L8.05264479,7.79918694 Z" id="Path-141" fill="#286AB4" mask="url(#mask-2)"></path>
                        <path d="M8.136567,7.57337309 L3.95233388,6.05051278 C3.95233388,6.05051278 2.19224693,2.26677503 5.21120551,0.18596966 C8.23016409,-1.89483571 12.3134601,-0.129395489 12.3134601,-0.129395489 L13.7588567,1.88853844 L8.136567,7.57337309 Z" id="Path-140" fill="#58A4FE" mask="url(#mask-2)"></path>
                        <path d="M12.5596718,6.01806951 L8.14211506,3.32037128 C8.14211506,3.32037128 10.149296,1.05216035 13.423372,1.51080001 C16.697448,1.96943968 18.3943733,8.76769117 17.0371153,9.98099066 C15.5304668,7.25817005 12.5596718,6.01806951 12.5596718,6.01806951 Z" id="Path-139" fill="#286AB4" mask="url(#mask-2)"></path>
                        <path d="M8.11170763,3.31329335 L3.84081324,5.87369564 L3.73933225,11.9387821 L12.428693,11.9770692 L12.5188534,5.98835555 L8.11170763,3.31329335 Z" id="Path-145" fill="#FFFFFF" mask="url(#mask-2)"></path>
                    </g>
                </g>
            </g>
        </g>
    </g>
</svg>